<?xml version="1.0" encoding="UTF-8"?>
<svg id="_レイヤー_1" data-name="レイヤー 1" xmlns="http://www.w3.org/2000/svg" viewBox="0 0 248.6 284.46">
  <defs>
    <style>
      .cls-1 {
        fill: #45b035;
      }

      .cls-2 {
        stroke-width: 12px;
      }

      .cls-2, .cls-3, .cls-4, .cls-5, .cls-6, .cls-7 {
        fill: none;
        stroke-linecap: round;
        stroke-linejoin: round;
      }

      .cls-2, .cls-6 {
        stroke: #45b035;
      }

      .cls-3 {
        stroke-width: 2.31px;
      }

      .cls-3, .cls-4, .cls-5, .cls-7 {
        stroke: #8fc31f;
      }

      .cls-8 {
        fill: #f6ab00;
      }

      .cls-9 {
        fill: #338d27;
      }

      .cls-10 {
        fill: #6a331f;
      }

      .cls-11 {
        fill: #a96232;
      }

      .cls-4 {
        stroke-width: 1.54px;
      }

      .cls-5 {
        stroke-width: 1.07px;
      }

      .cls-12 {
        fill: #fdd000;
      }

      .cls-13 {
        fill: #f5a200;
      }

      .cls-14 {
        fill: #87452e;
      }

      .cls-15 {
        fill: #f9be00;
      }

      .cls-6 {
        stroke-width: 3.49px;
      }

      .cls-7 {
        stroke-width: 1.61px;
      }

      .cls-16 {
        fill: #95512f;
      }

      .cls-17 {
        fill: #6a2c14;
      }

      .cls-18 {
        fill: #904b32;
      }
    </style>
  </defs>
  <g>
    <path class="cls-6" d="M130.5,242.95s-9.33-12.68-21.49-16.55"/>
    <path class="cls-1" d="M114.12,220.85s-2.15-24.2-29.22-19.58c0,0-22.35-.41-29.94,9.84,0,0-20.3,5.13-23.38,12.51,0,0-11.07,6.77-16.61,15.59,0,0-8.41,11.07-14.97,11.69l.73.45s20.72,1.7,41.44-6.73l71.95-23.76Z"/>
    <path class="cls-7" d="M11.09,248.58s79.96-34.52,99.16-26.07"/>
    <path class="cls-5" d="M95.1,220.93s-10.04-9.51-35.93-10.21"/>
    <path class="cls-5" d="M59.17,230.27s-5.99-5.63-25.01-6.52"/>
    <path class="cls-5" d="M32.4,239.43s-6.16-1.94-13.91-.71"/>
    <path class="cls-5" d="M31.17,240.31s-2.82,4.4-6.69,7.05"/>
    <path class="cls-5" d="M57.94,230.97s-2.29,7.75-7.4,10.21"/>
    <path class="cls-5" d="M93.52,221.64s-5.64,10.04-12.33,12.68"/>
    <path class="cls-9" d="M14.41,251.08s13.89-9.93,41.78-14.64c0,0,22.66-7.18,29.43-10.05,0,0,14.59-7.52,28.74-7.83,0,0,9.19-2.53,7.45,5.57,0,0-1.43,7.48-13.94,9.54,0,0-26.5,9.97-48.34,10.79,0,0-22.93,10.81-45.12,6.63Z"/>
  </g>
  <path class="cls-2" d="M126.7,180.97s6.25,28.36,1.1,97.49"/>
  <g>
    <path class="cls-6" d="M165.36,227.15s-23.71.06-33.86,28.73"/>
    <g>
      <path class="cls-1" d="M164.83,226.35s.64-25.57,18.5-23.9c0,0,19.79,2.44,24.54,9.9,0,0,19.66,6.81,22.48,19.4,0,0,8.86,7.46,8.61,11.82,0,0,6.17,12.46,9.64,13.62l-1.41.9s-11.44,4.76-18.63,4.62c0,0-12.59,2.96-21.84.64,0,0-30.45-2.18-37.78-8.22,0,0-17.99-6.81-25.05-24.54,0,0-3.85-12.46,2.83-12.72,0,0,3.09-.82,6.84,2.93,0,0,5.41,8.33,11.28,5.55Z"/>
      <path class="cls-3" d="M167.27,226.6s25.95,23.13,73.11,29.04"/>
      <path class="cls-4" d="M178.84,234.18s8.48-17.99,36.04-11.44"/>
      <path class="cls-4" d="M200.42,245.3s4.82-13.88,26.6-10.79"/>
      <path class="cls-4" d="M221.43,251.66s1.35-6.75,13.3-5.59"/>
      <path class="cls-4" d="M178.26,234.89s0,9.06,2.12,12.53"/>
      <path class="cls-4" d="M200.81,246.07s-.39,3.47,1.35,7.13"/>
      <path class="cls-4" d="M221.24,252.43s0,3.47,2.12,6.17"/>
      <path class="cls-9" d="M206.72,263.35s-30.45-2.18-37.78-8.22c0,0-17.99-6.81-25.05-24.54,0,0-3.85-12.46,2.83-12.72,0,0,3.54-3.38,8.29,2.66,0,0,.55,2.8,1.99,3.82,3.45,11.01,18.37,32.3,75.49,38.05-1.38.21-2.72.33-3.94.31,0,0-12.59,2.96-21.84.64Z"/>
    </g>
  </g>
  <g>
    <path class="cls-13" d="M122.87,63.26c10.42-36.17-17.18-53.15-17.18-53.15l-.09.02s-18.31,26.74,5.92,55.54l11.35-2.41Z"/>
    <path class="cls-13" d="M106.28,67.92c-5.19-37.28-37.31-41.57-37.31-41.57l-.07.05s-5.85,31.88,28,48.33l9.39-6.82Z"/>
    <path class="cls-13" d="M93.02,78.92c-19.9-31.94-50.99-22.8-50.99-22.8l-.04.08s7.62,31.5,45.24,32.76l5.8-10.05Z"/>
    <path class="cls-13" d="M85.38,94.37c-31.18-21.09-55.86-.08-55.86-.08v.09s19.77,25.68,54.64,11.53l1.21-11.54Z"/>
    <path class="cls-13" d="M84.68,111.58c-37.06-6.58-51.06,22.64-51.06,22.64l.03.09s28.51,15.41,54.62-11.69l-3.58-11.04Z"/>
    <path class="cls-13" d="M91.05,127.59c-36.53,9.06-37.44,41.45-37.44,41.45l.06.07s32.31,2.48,45.14-32.9l-7.76-8.62Z"/>
    <path class="cls-13" d="M103.37,139.63c-29.69,23.14-17.34,53.1-17.34,53.1l.08.04s30.53-10.87,27.86-48.41l-10.6-4.72Z"/>
    <path class="cls-13" d="M119.53,145.62c-17.71,33.21,5.76,55.56,5.76,55.56h.09s23.47-22.35,5.75-55.56h-11.6Z"/>
    <path class="cls-13" d="M136.73,144.51c-2.67,37.54,27.86,48.41,27.86,48.41l.08-.04s12.35-29.96-17.34-53.1l-10.6,4.72Z"/>
    <path class="cls-13" d="M151.99,136.51c12.83,35.38,45.14,32.9,45.14,32.9l.06-.07s-.91-32.4-37.44-41.45l-7.76,8.62Z"/>
    <path class="cls-13" d="M162.67,122.99c26.11,27.11,54.62,11.69,54.62,11.69l.03-.09s-14-29.23-51.06-22.64l-3.59,11.03Z"/>
    <path class="cls-13" d="M166.93,106.29c34.88,14.14,54.65-11.53,54.65-11.53v-.09s-24.69-21-55.87.08l1.21,11.54Z"/>
    <path class="cls-13" d="M164.03,89.31c37.62-1.27,45.24-32.76,45.24-32.76l-.05-.08s-31.09-9.15-50.99,22.8l5.8,10.05Z"/>
    <path class="cls-13" d="M154.48,74.97c33.85-16.46,28-48.33,28-48.33l-.07-.05s-32.12,4.29-37.31,41.56l9.39,6.82Z"/>
    <path class="cls-13" d="M139.92,65.76c24.23-28.8,5.92-55.54,5.92-55.54l-.09-.02s-27.6,16.98-17.18,53.15l11.35,2.41Z"/>
    <g>
      <path class="cls-12" d="M131.52,63.62C149.24,25.59,125.77,0,125.77,0h-.09s-23.47,25.59-5.76,63.62h11.6Z"/>
      <path class="cls-8" d="M113.49,39.94c.55,7.16,2.44,15.1,6.44,23.67h11.6c3.98-8.54,5.88-16.46,6.43-23.59-3.61,1.91-7.76,2.99-12.16,2.99s-8.66-1.12-12.3-3.07Z"/>
      <g>
        <path class="cls-15" d="M124.48,21.58s-2.43,13.5-1.6,27.25h-2.58s-1.98-13.17,4.18-27.25Z"/>
        <path class="cls-15" d="M126.97,21.58s2.43,13.5,1.6,27.25h2.58s1.98-13.17-4.18-27.25Z"/>
      </g>
    </g>
    <g>
      <path class="cls-12" d="M114.34,64.75c.72-41.94-31.13-55.77-31.13-55.77l-.08.04s-11.03,32.92,20.62,60.46l10.6-4.72Z"/>
      <path class="cls-8" d="M88.24,50.46c3.41,6.32,8.37,12.8,15.51,19.01l10.6-4.72c.16-9.42-1.32-17.42-3.72-24.17-2.53,3.21-5.87,5.89-9.9,7.68-4.08,1.82-8.36,2.5-12.49,2.2Z"/>
      <g>
        <path class="cls-15" d="M90.81,29.21s3.27,13.32,9.62,25.54l-2.36,1.05s-7.17-11.22-7.26-26.6Z"/>
        <path class="cls-15" d="M93.09,28.2s7.71,11.34,12.54,24.24l2.36-1.05s-3.54-12.84-14.91-23.19Z"/>
      </g>
    </g>
    <g>
      <path class="cls-12" d="M99.11,72.77c-16.4-38.61-51.13-38.29-51.13-38.29l-.06.07s3.32,34.56,43.42,46.84l7.76-8.62Z"/>
      <path class="cls-8" d="M69.45,70.33c5.69,4.38,12.85,8.29,21.9,11.06l7.76-8.62c-3.69-8.67-8.3-15.38-13.23-20.57-1,3.96-2.97,7.77-5.92,11.04-2.99,3.32-6.62,5.69-10.51,7.09Z"/>
      <g>
        <path class="cls-15" d="M63.16,49.88s8.4,10.84,19.18,19.42l-1.73,1.92s-11.11-7.34-17.45-21.34Z"/>
        <path class="cls-15" d="M64.83,48.03s11.66,7.22,21.32,17.04l1.73-1.92s-8.46-10.28-23.05-15.12Z"/>
      </g>
    </g>
    <g>
      <path class="cls-12" d="M88.45,86.29c-30.69-28.6-62.28-14.18-62.28-14.18l-.03.09s17.09,30.23,58.72,25.13l3.59-11.03Z"/>
      <path class="cls-8" d="M60.37,96.13c6.98,1.69,15.11,2.34,24.5,1.19l3.59-11.03c-6.89-6.42-13.83-10.67-20.45-13.41.7,4.03.45,8.3-.92,12.49-1.38,4.25-3.74,7.89-6.72,10.76Z"/>
      <g>
        <path class="cls-15" d="M46.3,80s12.09,6.49,25.42,9.94l-.8,2.46s-13.13-2.18-24.62-12.4Z"/>
        <path class="cls-15" d="M47.07,77.63s13.59,1.86,26.41,6.9l.8-2.46s-11.91-5.96-27.21-4.44Z"/>
      </g>
    </g>
    <g>
      <path class="cls-12" d="M84.22,102.98c-39.67-13.64-62.67,12.37-62.67,12.37v.09s27.91,20.66,63.88-.92l-1.21-11.54Z"/>
      <path class="cls-8" d="M62.56,123.39c7.06-1.29,14.76-4.01,22.87-8.87l-1.21-11.54c-8.91-3.07-16.98-4.12-24.14-3.93,2.27,3.39,3.78,7.4,4.24,11.79.47,4.44-.2,8.73-1.76,12.56Z"/>
      <g>
        <path class="cls-15" d="M43.16,114.38s13.68,1.01,27.27-1.26l.27,2.57s-12.89,3.35-27.54-1.31Z"/>
        <path class="cls-15" d="M42.89,111.9s13.17-3.83,26.93-4.44l-.27-2.57s-13.3-.6-26.66,7.01Z"/>
      </g>
    </g>
    <g>
      <path class="cls-12" d="M87.14,119.94c-41.79,3.67-52.21,36.79-52.21,36.79l.04.08s33.9,7.53,57.97-26.82l-5.8-10.05Z"/>
      <path class="cls-8" d="M75.66,147.4c5.93-4.05,11.85-9.66,17.28-17.41l-5.8-10.05c-9.39.82-17.19,3.14-23.65,6.23,3.46,2.18,6.47,5.22,8.67,9.04,2.23,3.86,3.36,8.06,3.5,12.19Z"/>
      <g>
        <path class="cls-15" d="M54.26,147.06s12.91-4.64,24.4-12.24l1.29,2.24s-10.41,8.3-25.69,10Z"/>
        <path class="cls-15" d="M53.02,144.9s10.48-8.86,22.8-15.01l-1.29-2.24s-12.39,4.87-21.51,17.25Z"/>
      </g>
    </g>
    <g>
      <path class="cls-12" d="M96.71,134.26c-36.68,20.35-32.74,54.85-32.74,54.85l.07.05s34.03-6.91,42.05-48.08l-9.39-6.82Z"/>
      <path class="cls-8" d="M97.39,164.01c3.76-6.11,6.9-13.65,8.71-22.93l-9.39-6.82c-8.24,4.57-14.43,9.86-19.07,15.31,4.04.58,8.03,2.14,11.6,4.73,3.61,2.62,6.35,5.99,8.15,9.71Z"/>
      <g>
        <path class="cls-15" d="M77.7,172.4s9.9-9.49,17.31-21.11l2.09,1.52s-6.13,11.82-19.4,19.59Z"/>
        <path class="cls-15" d="M75.69,170.94s5.97-12.35,14.72-22.99l-2.09-1.52s-9.34,9.49-12.63,24.51Z"/>
      </g>
    </g>
    <g>
      <path class="cls-12" d="M111.27,143.44c-25.23,33.51-7.6,63.42-7.6,63.42l.09.02s28.28-20.15,18.86-61.03l-11.35-2.41Z"/>
      <path class="cls-8" d="M123.99,170.34c.95-7.12.75-15.28-1.37-24.49l-11.35-2.41c-5.67,7.53-9.17,14.87-11.2,21.74,3.93-1.11,8.21-1.31,12.52-.39,4.37.93,8.24,2.89,11.4,5.56Z"/>
      <g>
        <path class="cls-15" d="M109.43,186.02s5.19-12.7,7.23-26.32l2.53.54s-.8,13.29-9.76,25.79Z"/>
        <path class="cls-15" d="M106.99,185.5s.43-13.71,4.1-26.99l-2.53-.54s-4.68,12.47-1.57,27.53Z"/>
      </g>
    </g>
    <g>
      <path class="cls-12" d="M128.31,145.91c-9.42,40.87,18.86,61.03,18.86,61.03l.09-.02s17.63-29.91-7.59-63.42l-11.35,2.41Z"/>
      <path class="cls-8" d="M150.87,165.31c-2.02-6.89-5.53-14.26-11.22-21.82l-11.35,2.41c-2.12,9.18-2.33,17.32-1.38,24.41,3.14-2.62,6.97-4.54,11.28-5.45,4.37-.93,8.7-.71,12.67.44Z"/>
      <g>
        <path class="cls-15" d="M143.94,185.55s-.43-13.71-4.1-26.99l2.53-.54s4.68,12.46,1.57,27.52Z"/>
        <path class="cls-15" d="M141.5,186.07s-5.19-12.7-7.23-26.32l-2.53.54s.8,13.29,9.76,25.78Z"/>
      </g>
    </g>
    <g>
      <path class="cls-12" d="M144.88,141.23c8.02,41.17,42.05,48.08,42.05,48.08l.07-.05s3.94-34.5-32.73-54.85l-9.39,6.82Z"/>
      <path class="cls-8" d="M173.39,149.78c-4.65-5.47-10.85-10.78-19.12-15.37l-9.39,6.82c1.8,9.25,4.92,16.77,8.66,22.87,1.8-3.67,4.52-6.98,8.08-9.57,3.61-2.62,7.66-4.19,11.76-4.75Z"/>
      <g>
        <path class="cls-15" d="M175.29,171.09s-5.97-12.35-14.72-22.99l2.09-1.52s9.34,9.49,12.63,24.51Z"/>
        <path class="cls-15" d="M173.27,172.56s-9.9-9.49-17.31-21.11l-2.09,1.52s6.14,11.82,19.4,19.59Z"/>
      </g>
    </g>
    <g>
      <path class="cls-12" d="M158.11,130.22c24.07,34.35,57.97,26.82,57.97,26.82l.04-.08s-10.43-33.12-52.21-36.79l-5.8,10.05Z"/>
      <path class="cls-8" d="M187.63,126.43c-6.47-3.11-14.3-5.43-23.72-6.26l-5.8,10.05c5.41,7.72,11.31,13.32,17.22,17.37.16-4.08,1.29-8.21,3.49-12.03,2.23-3.87,5.29-6.94,8.81-9.12Z"/>
      <g>
        <path class="cls-15" d="M198.04,145.13s-10.47-8.86-22.8-15.01l1.29-2.24s12.39,4.87,21.51,17.25Z"/>
        <path class="cls-15" d="M196.79,147.29s-12.91-4.64-24.4-12.24l-1.29,2.24s10.41,8.3,25.69,10Z"/>
      </g>
    </g>
    <g>
      <path class="cls-12" d="M165.72,114.77c35.96,21.59,63.87.93,63.87.93v-.09s-22.99-26.01-62.66-12.38l-1.21,11.54Z"/>
      <path class="cls-8" d="M191.15,99.31c-7.18-.2-15.27.85-24.22,3.93l-1.21,11.54c8.08,4.85,15.75,7.57,22.79,8.86-1.52-3.79-2.16-8.03-1.7-12.41.46-4.44,2.01-8.49,4.34-11.92Z"/>
      <g>
        <path class="cls-15" d="M208.26,112.16s-13.17-3.83-26.93-4.44l.27-2.57s13.3-.6,26.66,7.01Z"/>
        <path class="cls-15" d="M208,114.64s-13.68,1.01-27.27-1.26l-.27,2.57s12.89,3.35,27.54-1.31Z"/>
      </g>
    </g>
    <g>
      <path class="cls-12" d="M166.4,97.57c41.63,5.1,58.72-25.13,58.72-25.13l-.03-.09s-31.59-14.41-62.28,14.18l3.59,11.04Z"/>
      <path class="cls-8" d="M183.34,73.1c-6.64,2.73-13.61,6.99-20.53,13.44l3.59,11.04c9.35,1.14,17.46.5,24.42-1.18-2.93-2.85-5.24-6.45-6.6-10.64-1.38-4.24-1.62-8.58-.88-12.65Z"/>
      <g>
        <path class="cls-15" d="M204.19,77.88s-13.59,1.86-26.41,6.9l-.8-2.46s11.91-5.95,27.21-4.44Z"/>
        <path class="cls-15" d="M204.96,80.25s-12.09,6.49-25.42,9.94l.8,2.46s13.13-2.18,24.62-12.4Z"/>
      </g>
    </g>
    <g>
      <path class="cls-12" d="M160.01,81.58c40.11-12.28,43.42-46.84,43.42-46.84l-.06-.07s-34.72-.32-51.13,38.29l7.76,8.62Z"/>
      <path class="cls-8" d="M165.54,52.34c-4.96,5.2-9.59,11.92-13.29,20.62l7.76,8.62c9.01-2.76,16.16-6.64,21.83-11.01-3.83-1.41-7.41-3.76-10.36-7.04-2.99-3.31-4.96-7.18-5.95-11.2Z"/>
      <g>
        <path class="cls-15" d="M186.53,48.22s-11.66,7.22-21.32,17.04l-1.73-1.92s8.46-10.28,23.05-15.12Z"/>
        <path class="cls-15" d="M188.2,50.07s-8.41,10.84-19.18,19.42l1.73,1.92s11.11-7.34,17.45-21.34Z"/>
      </g>
    </g>
    <g>
      <path class="cls-12" d="M147.68,69.57c31.65-27.53,20.62-60.46,20.62-60.46l-.08-.04s-31.85,13.83-31.13,55.77l10.6,4.72Z"/>
      <path class="cls-8" d="M140.83,40.61c-2.41,6.76-3.91,14.79-3.75,24.24l10.6,4.72c7.11-6.18,12.06-12.64,15.47-18.94-4.08.27-8.3-.42-12.33-2.22-4.08-1.81-7.46-4.54-9.99-7.81Z"/>
      <g>
        <path class="cls-15" d="M158.33,28.31s-7.71,11.34-12.55,24.24l-2.36-1.05s3.54-12.83,14.91-23.19Z"/>
        <path class="cls-15" d="M160.61,29.32s-3.27,13.32-9.62,25.55l2.36,1.05s7.16-11.22,7.26-26.6Z"/>
      </g>
    </g>
    <path class="cls-10" d="M183.76,104.55c0,32.13-26.04,58.17-58.17,58.17s-58.17-26.04-58.17-58.17,26.04-58.17,58.17-58.17,58.17,26.04,58.17,58.17Z"/>
    <path class="cls-14" d="M177.94,104.55c0,28.91-23.44,52.35-52.35,52.35s-52.35-23.44-52.35-52.35,23.44-52.35,52.35-52.35,52.35,23.44,52.35,52.35Z"/>
    <path class="cls-18" d="M172.7,104.55c0,26.02-21.1,47.12-47.12,47.12s-47.12-21.1-47.12-47.12,21.1-47.12,47.12-47.12,47.12,21.09,47.12,47.12Z"/>
    <path class="cls-16" d="M157.89,104.55c0,17.84-14.46,32.31-32.3,32.31s-32.3-14.46-32.3-32.31,14.46-32.31,32.3-32.31,32.3,14.46,32.3,32.31Z"/>
    <path class="cls-10" d="M169.89,66.88c5.35,8.8,8.43,19.13,8.43,30.18,0,32.13-26.04,58.17-58.17,58.17-17.75,0-33.64-7.96-44.31-20.5,10.2,16.78,28.66,27.99,49.74,27.99,32.12,0,58.17-26.04,58.17-58.17,0-14.37-5.22-27.52-13.86-37.67Z"/>
    <circle class="cls-11" cx="125.59" cy="104.55" r="26.92"/>
    <circle class="cls-17" cx="125.59" cy="104.55" r="22.25"/>
    <g>
      <g>
        <path class="cls-10" d="M89.24,142.16c0,.69-.73,1.25-1.62,1.25s-1.62-.56-1.62-1.25.73-1.25,1.62-1.25,1.62.56,1.62,1.25Z"/>
        <path class="cls-10" d="M95.32,142.16c0,.69-.73,1.25-1.62,1.25s-1.62-.56-1.62-1.25.73-1.25,1.62-1.25,1.62.56,1.62,1.25Z"/>
        <path class="cls-10" d="M101.41,142.16c0,.69-.73,1.25-1.62,1.25s-1.62-.56-1.62-1.25.73-1.25,1.62-1.25,1.62.56,1.62,1.25Z"/>
        <path class="cls-10" d="M107.49,142.16c0,.69-.73,1.25-1.62,1.25s-1.62-.56-1.62-1.25.73-1.25,1.62-1.25,1.62.56,1.62,1.25Z"/>
        <path class="cls-10" d="M113.58,142.16c0,.69-.73,1.25-1.62,1.25s-1.62-.56-1.62-1.25.73-1.25,1.62-1.25,1.62.56,1.62,1.25Z"/>
        <path class="cls-10" d="M119.66,142.16c0,.69-.73,1.25-1.62,1.25s-1.62-.56-1.62-1.25.73-1.25,1.62-1.25,1.62.56,1.62,1.25Z"/>
        <path class="cls-10" d="M125.74,142.16c0,.69-.73,1.25-1.62,1.25s-1.62-.56-1.62-1.25.73-1.25,1.62-1.25,1.62.56,1.62,1.25Z"/>
        <path class="cls-10" d="M131.83,142.16c0,.69-.73,1.25-1.62,1.25s-1.62-.56-1.62-1.25.73-1.25,1.62-1.25,1.62.56,1.62,1.25Z"/>
        <path class="cls-10" d="M137.91,142.16c0,.69-.73,1.25-1.62,1.25s-1.62-.56-1.62-1.25.73-1.25,1.62-1.25,1.62.56,1.62,1.25Z"/>
        <path class="cls-10" d="M144,142.16c0,.69-.73,1.25-1.62,1.25s-1.62-.56-1.62-1.25.73-1.25,1.62-1.25,1.62.56,1.62,1.25Z"/>
        <path class="cls-10" d="M150.08,142.16c0,.69-.73,1.25-1.62,1.25s-1.62-.56-1.62-1.25.73-1.25,1.62-1.25,1.62.56,1.62,1.25Z"/>
        <path class="cls-10" d="M156.16,142.16c0,.69-.73,1.25-1.62,1.25s-1.62-.56-1.62-1.25.73-1.25,1.62-1.25,1.62.56,1.62,1.25Z"/>
        <path class="cls-10" d="M162.25,142.16c0,.69-.73,1.25-1.62,1.25s-1.62-.56-1.62-1.25.73-1.25,1.62-1.25,1.62.56,1.62,1.25Z"/>
      </g>
      <g>
        <ellipse class="cls-10" cx="90.45" cy="146.6" rx="1.62" ry="1.25"/>
        <ellipse class="cls-10" cx="96.53" cy="146.6" rx="1.62" ry="1.25"/>
        <ellipse class="cls-10" cx="102.62" cy="146.6" rx="1.62" ry="1.25"/>
        <ellipse class="cls-10" cx="108.7" cy="146.6" rx="1.62" ry="1.25"/>
        <ellipse class="cls-10" cx="114.78" cy="146.6" rx="1.62" ry="1.25"/>
        <ellipse class="cls-10" cx="120.87" cy="146.6" rx="1.62" ry="1.25"/>
        <ellipse class="cls-10" cx="126.95" cy="146.6" rx="1.62" ry="1.25"/>
        <ellipse class="cls-10" cx="133.04" cy="146.6" rx="1.62" ry="1.25"/>
        <ellipse class="cls-10" cx="139.12" cy="146.6" rx="1.62" ry="1.25"/>
        <ellipse class="cls-10" cx="145.2" cy="146.6" rx="1.62" ry="1.25"/>
        <ellipse class="cls-10" cx="151.29" cy="146.6" rx="1.62" ry="1.25"/>
        <ellipse class="cls-10" cx="157.37" cy="146.6" rx="1.62" ry="1.25"/>
      </g>
      <g>
        <ellipse class="cls-10" cx="81.53" cy="133.16" rx="1.62" ry="1.25"/>
        <ellipse class="cls-10" cx="87.62" cy="133.16" rx="1.62" ry="1.25"/>
        <ellipse class="cls-10" cx="93.65" cy="133.16" rx="1.62" ry="1.25"/>
        <ellipse class="cls-10" cx="142.37" cy="133.16" rx="1.62" ry="1.25"/>
        <ellipse class="cls-10" cx="148.45" cy="133.16" rx="1.62" ry="1.25"/>
        <ellipse class="cls-10" cx="154.54" cy="133.16" rx="1.62" ry="1.25"/>
        <ellipse class="cls-10" cx="160.62" cy="133.16" rx="1.62" ry="1.25"/>
        <ellipse class="cls-10" cx="166.71" cy="133.16" rx="1.62" ry="1.25"/>
      </g>
      <g>
        <ellipse class="cls-10" cx="84.36" cy="137.6" rx="1.62" ry="1.25"/>
        <ellipse class="cls-10" cx="90.45" cy="137.6" rx="1.62" ry="1.25"/>
        <ellipse class="cls-10" cx="96.53" cy="137.6" rx="1.62" ry="1.25"/>
        <ellipse class="cls-10" cx="103.06" cy="137.6" rx="1.62" ry="1.25"/>
        <ellipse class="cls-10" cx="108.97" cy="137.6" rx="1.62" ry="1.25"/>
        <ellipse class="cls-10" cx="114.88" cy="137.6" rx="1.62" ry="1.25"/>
        <ellipse class="cls-10" cx="120.79" cy="137.6" rx="1.62" ry="1.25"/>
        <ellipse class="cls-10" cx="133.04" cy="137.6" rx="1.62" ry="1.25"/>
        <ellipse class="cls-10" cx="139.12" cy="137.6" rx="1.62" ry="1.25"/>
        <ellipse class="cls-10" cx="145.2" cy="137.6" rx="1.62" ry="1.25"/>
        <ellipse class="cls-10" cx="151.29" cy="137.6" rx="1.62" ry="1.25"/>
        <ellipse class="cls-10" cx="157.37" cy="137.6" rx="1.62" ry="1.25"/>
      </g>
      <g>
        <ellipse class="cls-10" cx="75.45" cy="123.66" rx="1.62" ry="1.25"/>
        <ellipse class="cls-10" cx="75.45" cy="115.28" rx="1.62" ry="1.25"/>
        <ellipse class="cls-10" cx="80.99" cy="123.66" rx="1.62" ry="1.25"/>
        <ellipse class="cls-10" cx="154.54" cy="123.66" rx="1.62" ry="1.25"/>
        <ellipse class="cls-10" cx="160.62" cy="123.66" rx="1.62" ry="1.25"/>
        <ellipse class="cls-10" cx="166.71" cy="123.66" rx="1.62" ry="1.25"/>
      </g>
      <g>
        <ellipse class="cls-10" cx="78.28" cy="128.1" rx="1.62" ry="1.25"/>
        <ellipse class="cls-10" cx="78.28" cy="119.36" rx="1.62" ry="1.25"/>
        <ellipse class="cls-10" cx="84.36" cy="128.1" rx="1.62" ry="1.25"/>
        <ellipse class="cls-10" cx="151.29" cy="128.1" rx="1.62" ry="1.25"/>
        <ellipse class="cls-10" cx="157.37" cy="128.1" rx="1.62" ry="1.25"/>
        <ellipse class="cls-10" cx="163.46" cy="128.1" rx="1.62" ry="1.25"/>
        <ellipse class="cls-10" cx="169.54" cy="128.1" rx="1.62" ry="1.25"/>
      </g>
      <g>
        <ellipse class="cls-10" cx="93.7" cy="151.05" rx="1.62" ry="1.25"/>
        <ellipse class="cls-10" cx="99.78" cy="151.05" rx="1.62" ry="1.25"/>
        <ellipse class="cls-10" cx="105.87" cy="151.05" rx="1.62" ry="1.25"/>
        <ellipse class="cls-10" cx="111.95" cy="151.05" rx="1.62" ry="1.25"/>
        <ellipse class="cls-10" cx="118.04" cy="151.05" rx="1.62" ry="1.25"/>
        <ellipse class="cls-10" cx="124.12" cy="151.05" rx="1.62" ry="1.25"/>
        <ellipse class="cls-10" cx="130.2" cy="151.05" rx="1.62" ry="1.25"/>
        <ellipse class="cls-10" cx="136.29" cy="151.05" rx="1.62" ry="1.25"/>
        <ellipse class="cls-10" cx="142.37" cy="151.05" rx="1.62" ry="1.25"/>
      </g>
      <g>
        <ellipse class="cls-10" cx="108.7" cy="155.49" rx="1.62" ry="1.25"/>
        <ellipse class="cls-10" cx="114.78" cy="155.49" rx="1.62" ry="1.25"/>
        <ellipse class="cls-10" cx="120.87" cy="155.49" rx="1.62" ry="1.25"/>
        <ellipse class="cls-10" cx="126.95" cy="155.49" rx="1.62" ry="1.25"/>
        <ellipse class="cls-10" cx="133.04" cy="155.49" rx="1.62" ry="1.25"/>
      </g>
      <g>
        <path class="cls-10" d="M73.78,119.19c0,.57-.61,1.03-1.36,1.03s-1.36-.46-1.36-1.03.61-1.03,1.36-1.03,1.36.46,1.36,1.03Z"/>
        <path class="cls-10" d="M159.36,119.19c0,.57-.61,1.03-1.36,1.03s-1.36-.46-1.36-1.03.61-1.03,1.36-1.03,1.36.46,1.36,1.03Z"/>
        <path class="cls-10" d="M165.94,119.19c0,.57-.61,1.03-1.36,1.03s-1.36-.46-1.36-1.03.61-1.03,1.36-1.03,1.36.46,1.36,1.03Z"/>
        <path class="cls-10" d="M172.52,119.19c0,.57-.61,1.03-1.36,1.03s-1.36-.46-1.36-1.03.61-1.03,1.36-1.03,1.36.46,1.36,1.03Z"/>
        <path class="cls-10" d="M179.1,119.19c0,.57-.61,1.03-1.36,1.03s-1.36-.46-1.36-1.03.61-1.03,1.36-1.03,1.36.46,1.36,1.03Z"/>
      </g>
      <g>
        <path class="cls-10" d="M162.68,115.56c0,.57-.61,1.03-1.36,1.03s-1.36-.46-1.36-1.03.61-1.03,1.36-1.03,1.36.46,1.36,1.03Z"/>
        <path class="cls-10" d="M169.27,115.56c0,.57-.61,1.03-1.36,1.03s-1.36-.46-1.36-1.03.61-1.03,1.36-1.03,1.36.46,1.36,1.03Z"/>
        <path class="cls-10" d="M175.85,115.56c0,.57-.61,1.03-1.36,1.03s-1.36-.46-1.36-1.03.61-1.03,1.36-1.03,1.36.46,1.36,1.03Z"/>
      </g>
      <g>
        <path class="cls-10" d="M165.94,111.94c0,.57-.61,1.03-1.36,1.03s-1.36-.46-1.36-1.03.61-1.03,1.36-1.03,1.36.46,1.36,1.03Z"/>
        <path class="cls-10" d="M172.52,111.94c0,.57-.61,1.03-1.36,1.03s-1.36-.46-1.36-1.03.61-1.03,1.36-1.03,1.36.46,1.36,1.03Z"/>
        <path class="cls-10" d="M179.1,111.94c0,.57-.61,1.03-1.36,1.03s-1.36-.46-1.36-1.03.61-1.03,1.36-1.03,1.36.46,1.36,1.03Z"/>
      </g>
      <g>
        <path class="cls-10" d="M169.27,108.31c0,.57-.61,1.03-1.36,1.03s-1.36-.46-1.36-1.03.61-1.03,1.36-1.03,1.36.46,1.36,1.03Z"/>
        <path class="cls-10" d="M162.83,108.31c0,.57-.61,1.03-1.36,1.03s-1.36-.46-1.36-1.03.61-1.03,1.36-1.03,1.36.46,1.36,1.03Z"/>
        <path class="cls-10" d="M175.85,108.31c0,.57-.61,1.03-1.36,1.03s-1.36-.46-1.36-1.03.61-1.03,1.36-1.03,1.36.46,1.36,1.03Z"/>
      </g>
      <g>
        <path class="cls-10" d="M165.13,104.01c0,.44-.48.79-1.07.79s-1.07-.35-1.07-.79.48-.79,1.07-.79,1.07.35,1.07.79Z"/>
        <ellipse class="cls-10" cx="169.87" cy="104.01" rx="1.07" ry=".79"/>
        <path class="cls-10" d="M176.76,104.01c0,.44-.48.79-1.07.79s-1.07-.35-1.07-.79.48-.79,1.07-.79,1.07.35,1.07.79Z"/>
      </g>
      <g>
        <path class="cls-10" d="M168.18,100.7c0,.44-.48.79-1.07.79s-1.07-.35-1.07-.79.48-.79,1.07-.79,1.07.35,1.07.79Z"/>
        <path class="cls-10" d="M173.99,100.7c0,.44-.48.79-1.07.79s-1.07-.35-1.07-.79.48-.79,1.07-.79,1.07.35,1.07.79Z"/>
      </g>
      <g>
        <path class="cls-10" d="M170.95,97.38c0,.44-.48.79-1.07.79s-1.07-.35-1.07-.79.48-.79,1.07-.79,1.07.35,1.07.79Z"/>
        <path class="cls-10" d="M165.13,97.38c0,.44-.48.79-1.07.79s-1.07-.35-1.07-.79.48-.79,1.07-.79,1.07.35,1.07.79Z"/>
        <path class="cls-10" d="M176.76,97.38c0,.44-.48.79-1.07.79s-1.07-.35-1.07-.79.48-.79,1.07-.79,1.07.35,1.07.79Z"/>
      </g>
      <g>
        <path class="cls-10" d="M168.18,94.07c0,.44-.48.79-1.07.79s-1.07-.35-1.07-.79.48-.79,1.07-.79,1.07.35,1.07.79Z"/>
        <path class="cls-10" d="M173.99,94.07c0,.44-.48.79-1.07.79s-1.07-.35-1.07-.79.48-.79,1.07-.79,1.07.35,1.07.79Z"/>
      </g>
      <g>
        <path class="cls-10" d="M170.95,90.37c0,.44-.48.79-1.07.79s-1.07-.35-1.07-.79.48-.79,1.07-.79,1.07.35,1.07.79Z"/>
        <path class="cls-10" d="M165.13,90.37c0,.44-.48.79-1.07.79s-1.07-.35-1.07-.79.48-.79,1.07-.79,1.07.35,1.07.79Z"/>
        <path class="cls-10" d="M176.76,90.37c0,.44-.48.79-1.07.79s-1.07-.35-1.07-.79.48-.79,1.07-.79,1.07.35,1.07.79Z"/>
      </g>
      <g>
        <path class="cls-10" d="M168.18,87.05c0,.44-.48.79-1.07.79s-1.07-.35-1.07-.79.48-.79,1.07-.79,1.07.35,1.07.79Z"/>
        <path class="cls-10" d="M173.99,87.05c0,.44-.48.79-1.07.79s-1.07-.35-1.07-.79.48-.79,1.07-.79,1.07.35,1.07.79Z"/>
      </g>
      <g>
        <path class="cls-10" d="M170.95,83.35c0,.44-.48.79-1.07.79s-1.07-.35-1.07-.79.48-.79,1.07-.79,1.07.35,1.07.79Z"/>
        <path class="cls-10" d="M176.76,83.35c0,.44-.48.79-1.07.79s-1.07-.35-1.07-.79.48-.79,1.07-.79,1.07.35,1.07.79Z"/>
      </g>
      <g>
        <path class="cls-10" d="M168.18,80.04c0,.44-.48.79-1.07.79s-1.07-.35-1.07-.79.48-.79,1.07-.79,1.07.35,1.07.79Z"/>
        <path class="cls-10" d="M173.99,80.04c0,.44-.48.79-1.07.79s-1.07-.35-1.07-.79.48-.79,1.07-.79,1.07.35,1.07.79Z"/>
      </g>
      <path class="cls-10" d="M170.95,76.33c0,.44-.48.79-1.07.79s-1.07-.35-1.07-.79.48-.79,1.07-.79,1.07.35,1.07.79Z"/>
      <path class="cls-10" d="M164.48,76.33c0,.44-.48.79-1.07.79s-1.07-.35-1.07-.79.48-.79,1.07-.79,1.07.35,1.07.79Z"/>
      <path class="cls-10" d="M168.18,73.02c0,.44-.48.79-1.07.79s-1.07-.35-1.07-.79.48-.79,1.07-.79,1.07.35,1.07.79Z"/>
      <path class="cls-10" d="M164.36,69.31c0,.44-.48.79-1.07.79s-1.07-.35-1.07-.79.48-.79,1.07-.79,1.07.35,1.07.79Z"/>
      <path class="cls-10" d="M161.28,66c0,.44-.48.79-1.07.79s-1.07-.35-1.07-.79.48-.79,1.07-.79,1.07.35,1.07.79Z"/>
    </g>
  </g>
</svg>